<svg xmlns="http://www.w3.org/2000/svg" width="560" height="88" viewBox="0 0 560 88" role="img" aria-labelledby="title desc"><title id="title">LinkedIn</title><desc id="desc">linkedin.com/in/mrkryptonbtc</desc><rect x="1" y="1" width="558" height="86" rx="4" fill="#0A0A09" stroke="#3B3A36"/><rect x="1" y="1" width="5" height="86" fill="#0A66C2"/><g transform="translate(27 21)"><rect width="46" height="46" rx="5" fill="#0A66C2"><animate attributeName="opacity" values=".78;1;.78" dur="3.5s" repeatCount="indefinite"/></rect><path fill="#fff" d="M12.3 17.6H6.9V35h5.4V17.6Zm.4-5.4c0-1.7-1.4-3.1-3.1-3.1s-3.1 1.4-3.1 3.1 1.4 3.1 3.1 3.1 3.1-1.4 3.1-3.1ZM35 25.1c0-5.2-2.8-7.7-6.5-7.7-3 0-4.3 1.6-5.1 2.8v-2.4H18V35h5.4v-8.5c0-2.2.4-4.4 3.2-4.4s2.9 2.6 2.9 4.6V35H35v-9.9Z"/></g><text x="98" y="33" fill="#77746D" font-family="Consolas,monospace" font-size="14" letter-spacing="3">LINKEDIN</text><text x="98" y="59" fill="#F0ECE2" font-family="Helvetica Neue,Arial,sans-serif" font-size="18" font-weight="600">linkedin.com/in/mrkryptonbtc</text><path d="M520 36h16M529 28l8 8-8 8" fill="none" stroke="#0A66C2" stroke-width="1.7"/></svg>