<svg xmlns="http://www.w3.org/2000/svg" width="1200" height="390" viewBox="0 0 1200 390" role="img" aria-labelledby="title desc">
<title id="title">The complete product system</title><desc id="desc">An animated end-to-end engineering map from product definition through production scale.</desc>
<defs><pattern id="grid" width="48" height="48" patternUnits="userSpaceOnUse"><path d="M48 0H0V48" fill="none" stroke="#F0ECE2" stroke-opacity=".028"/></pattern><filter id="signal"><feGaussianBlur stdDeviation="3"/></filter></defs>
<rect x="1" y="1" width="1198" height="388" fill="#0A0A09" stroke="#3B3A36"/><rect x="1" y="1" width="1198" height="388" fill="url(#grid)"/><rect x="1" y="1" width="6" height="388" fill="#DE4F2A"/>
<text x="38" y="40" fill="#DE4F2A" font-family="Consolas,monospace" font-size="10" font-weight="700" letter-spacing="3">END-TO-END ENGINEERING / OPERATING SYSTEM</text><text x="38" y="76" fill="#F0ECE2" font-family="Helvetica Neue,Arial,sans-serif" font-size="23" font-weight="600" letter-spacing="-.4">THE COMPLETE PRODUCT SYSTEM</text><text x="1160" y="42" text-anchor="end" fill="#706D66" font-family="Consolas,monospace" font-size="10" letter-spacing="1.5">IDEA → PRODUCTION → SCALE</text><text x="1160" y="74" text-anchor="end" fill="#A39F96" font-family="Georgia,serif" font-size="13" font-style="italic">one practice / every layer</text><line x1="38" y1="96" x2="1160" y2="96" stroke="#3B3A36"/>
<g stroke="#34332F" stroke-dasharray="2 7"><line x1="240" y1="116" x2="240" y2="326"/><line x1="480" y1="116" x2="480" y2="326"/><line x1="720" y1="116" x2="720" y2="326"/><line x1="960" y1="116" x2="960" y2="326"/></g>
<path d="M72 181H1128" fill="none" stroke="#4A4843" stroke-width="1.3" stroke-dasharray="5 8"><animate attributeName="stroke-dashoffset" from="0" to="-52" dur="5s" repeatCount="indefinite"/></path><circle r="8" fill="#DE4F2A" opacity=".14" filter="url(#signal)"><animateMotion dur="9s" repeatCount="indefinite" path="M72 181H1128"/></circle><circle r="3.5" fill="#E9B872"><animateMotion dur="9s" repeatCount="indefinite" path="M72 181H1128"/></circle>
<g font-family="Consolas,monospace" font-size="10" font-weight="700" letter-spacing="2" fill="#DE4F2A"><text x="48" y="128">01</text><text x="288" y="128">02</text><text x="528" y="128">03</text><text x="768" y="128">04</text><text x="1008" y="128">05</text></g><g font-family="Helvetica Neue,Arial,sans-serif" font-size="19" font-weight="600" fill="#F0ECE2"><text x="81" y="129">Define</text><text x="321" y="129">Design</text><text x="561" y="129">Engineer</text><text x="801" y="129">Ship</text><text x="1041" y="129">Evolve</text></g>
<g transform="translate(120 181)" fill="none" stroke="#DE4F2A" stroke-width="1.7" stroke-linecap="round"><circle r="20"/><circle r="8"/><path d="M0-27v7M27 0h-7M0 27v-7M-27 0h7"/><animateTransform attributeName="transform" additive="sum" type="rotate" from="0" to="360" dur="18s" repeatCount="indefinite"/></g><circle cx="120" cy="181" r="3" fill="#E9B872"><animate attributeName="opacity" values=".35;1;.35" dur="2.8s" repeatCount="indefinite"/></circle>
<g transform="translate(360 181)" fill="none" stroke="#DE4F2A" stroke-width="1.7" stroke-linecap="round" stroke-linejoin="round"><path d="m-18 17 6-22L5-22l12 12-17 17-18 10Z"/><path d="m-12-5 12 12"/><circle cx="5" cy="-22" r="2" fill="#E9B872" stroke="none"><animate attributeName="r" values="2;4;2" dur="3s" repeatCount="indefinite"/></circle></g>
<g transform="translate(600 181)" fill="none" stroke-linecap="round" stroke-linejoin="round"><path d="m-12-19-18 19 18 19M12-19 30 0 12 19" stroke="#DE4F2A" stroke-width="1.9"><animate attributeName="opacity" values=".55;1;.55" dur="3s" repeatCount="indefinite"/></path><path d="m8-27-16 54" stroke="#9C988F" stroke-width="1.5"/></g>
<g transform="translate(840 181)" fill="none" stroke-linecap="round" stroke-linejoin="round"><path d="M-29 8c-7 0-11-5-11-11 0-7 5-12 12-13 3-9 11-14 21-14 12 0 21 8 23 19 8 0 14 6 14 14 0 9-7 14-15 14h-44" stroke="#9C988F" stroke-width="1.5"/><path d="M-5 19V-8m0 0-9 9m9-9 9 9" stroke="#DE4F2A" stroke-width="1.9"><animateTransform attributeName="transform" type="translate" values="0 3;0 -3;0 3" dur="3.2s" repeatCount="indefinite"/></path></g>
<g transform="translate(1080 181)" fill="none" stroke="#DE4F2A" stroke-width="1.8" stroke-linecap="round" stroke-linejoin="round"><path d="M20 8A24 24 0 1 1 9-21"/><path d="m7-29 3 9 9-3"/><animateTransform attributeName="transform" additive="sum" type="rotate" values="0 0 0;14 0 0;0 0 0" dur="4s" repeatCount="indefinite"/></g><circle cx="1080" cy="181" r="5" fill="#E9B872" opacity=".8"/>
<g font-family="Helvetica Neue,Arial,sans-serif" font-size="13" fill="#A7A39A"><text x="120" y="239" text-anchor="middle">Requirements</text><text x="120" y="263" text-anchor="middle">Product strategy</text><text x="120" y="287" text-anchor="middle">Architecture</text><text x="360" y="239" text-anchor="middle">User experience</text><text x="360" y="263" text-anchor="middle">Design systems</text><text x="360" y="287" text-anchor="middle">Interfaces</text><text x="600" y="239" text-anchor="middle">Frontend &amp; mobile</text><text x="600" y="263" text-anchor="middle">Backend &amp; APIs</text><text x="600" y="287" text-anchor="middle">Data &amp; intelligence</text><text x="840" y="239" text-anchor="middle">Cloud infrastructure</text><text x="840" y="263" text-anchor="middle">CI / CD</text><text x="840" y="287" text-anchor="middle">Security</text><text x="1080" y="239" text-anchor="middle">Observability</text><text x="1080" y="263" text-anchor="middle">Performance</text><text x="1080" y="287" text-anchor="middle">Scale</text></g>
<line x1="38" y1="329" x2="1160" y2="329" stroke="#3B3A36"/><text x="38" y="361" fill="#706D66" font-family="Consolas,monospace" font-size="10" letter-spacing="2">OWN THE PROBLEM  /  OWN THE SYSTEM  /  OWN THE OUTCOME</text><g transform="translate(1009 356)" fill="#DE4F2A"><rect width="25" height="3"/><rect x="33" width="25" height="3" opacity=".65"/><rect x="66" width="25" height="3" opacity=".35"/><rect x="99" width="25" height="3" opacity=".15"/><animate attributeName="opacity" values=".45;1;.45" dur="3s" repeatCount="indefinite"/></g>
</svg>